<svg id="Layer_1" data-name="Layer 1" xmlns="http://www.w3.org/2000/svg" xmlns:xlink="http://www.w3.org/1999/xlink" viewBox="0 0 350.69 349.79"><defs><style>.cls-1{fill:#fff;}.cls-2{fill:#00a3af;}.cls-3{fill:url(#linear-gradient);}.cls-4{fill:url(#linear-gradient-2);}</style><linearGradient id="linear-gradient" x1="180.28" y1="209.08" x2="180.28" y2="333.98" gradientUnits="userSpaceOnUse"><stop offset="0" stop-color="#009cd4"/><stop offset="1" stop-color="#003f6a"/></linearGradient><linearGradient id="linear-gradient-2" x1="174.79" y1="346.29" x2="174.79" y2="2.95" gradientUnits="userSpaceOnUse"><stop offset="0" stop-color="#00293f"/><stop offset="0.61" stop-color="#0073aa"/></linearGradient></defs><title>ids_logo</title><circle class="cls-1" cx="178.28" cy="174.03" r="163"/><path class="cls-2" d="M337.74,169.23,278,136.85,260.8,152l-23.06-19.51L216.16,152,158.94,111,98.67,161.1h0L60.76,141.17l-49.64,41h7.11c-5.12,7.37-6.53,17.19-2.79,30.22C31.94,269.87,96,334,175.87,334c62.76,0,153-65.62,158.27-125.18,1-11,7.25-19.57,3.6-26.43Z"/><path class="cls-1" d="M26.5,234.76c10.29.52,20.08-4.43,28.54-10.3s16.27-12.84,25.56-17.3c22.63-10.88,49.69-5,73,4.17s46.05,21.74,71.06,24.08a90.9,90.9,0,0,0,55.54-12.92c8.76-5.38,16.7-12.3,26.31-15.95s21.92-3.07,28.44,4.88c1.1,19.27-8,38.53-19.63,53.93s-26.74,27.77-41.9,39.71c-9.35,7.37-18.9,14.71-29.76,19.58-9.69,4.35-20.16,6.61-30.61,8.49-27.79,5-56.93,7.33-83.86-1.17a203.8,203.8,0,0,1-23.68-9.65c-11.49-5.29-23-10.75-33.2-18.24-19.87-14.59-33.53-35.9-46.73-56.71-1.5-2.36-3-4.86-3.19-7.65S23.71,235,26.5,234.76Z"/><path class="cls-3" d="M26.5,242.57c10.29.52,20.08-4.43,28.54-10.3S71.31,219.44,80.6,215c22.63-10.88,49.69-5,73,4.17s46.05,21.74,71.06,24.08a90.9,90.9,0,0,0,55.54-12.92c8.76-5.38,16.7-12.3,26.31-15.95s21.92-3.07,28.44,4.88c-5.72,16.1-9.72,23.6-19.56,44.33-8.27,17.44-25.3,25.92-40.46,37.86-9.35,7.37-18.9,14.71-29.76,19.58-9.69,4.35-20.16,6.61-30.61,8.49-27.79,5-56.93,7.33-83.86-1.17a203.8,203.8,0,0,1-23.68-9.65c-11.49-5.29-23-10.75-33.2-18.24C54,285.85,44.48,275.14,31.28,254.32c-1.5-2.36-3-4.86-3.19-7.65S23.71,242.8,26.5,242.57Z"/><path class="cls-1" d="M57.69,283.58a50,50,0,0,0,16.9-4.63c.66-.31,1.32-.61,2-.93L78.48,277c1.29-.66,2.54-1.45,3.8-2.19,2.5-1.52,4.94-3.19,7.42-4.83s4.93-3.37,7.48-5q1.91-1.23,3.88-2.4c1.3-.8,2.66-1.53,4-2.27.67-.38,1.36-.74,2.06-1.06l2.1-1c1.42-.64,2.9-1.18,4.35-1.75a88.58,88.58,0,0,1,8.88-2.5A56,56,0,0,1,141,252.77a67,67,0,0,1,17.66,4.79c5.61,2.24,11,4.77,16.56,7.08s11.09,4.38,16.75,6.3,11.35,3.64,17,5.16a123.57,123.57,0,0,0,17.18,3.41,76.37,76.37,0,0,0,17.25.12A88.72,88.72,0,0,0,260.21,276l4.09-1.37A33.07,33.07,0,0,0,268,273a84.32,84.32,0,0,0,7.34-4.52c2.43-1.64,4.86-3.38,7.3-5.12s5-3.43,7.51-5.09a82.86,82.86,0,0,1,8-4.6,42.34,42.34,0,0,1,8.71-3.36,22.16,22.16,0,0,1,9.41-.5,17.7,17.7,0,0,1,8.35,3.92l-.35.49a17.68,17.68,0,0,0-8.23-2.44,21,21,0,0,0-8.29,1.47c-5.33,2-10.17,5.38-14.87,8.9-2.36,1.77-4.67,3.63-7,5.49s-4.7,3.73-7.13,5.56a73.39,73.39,0,0,1-7.73,5.21,33.79,33.79,0,0,1-4.4,2.17c-1.48.56-2.92,1-4.39,1.57a76.73,76.73,0,0,1-36.81,3,105.9,105.9,0,0,1-17.82-4.42c-5.77-1.93-11.33-4.3-16.84-6.71s-11-5-16.39-7.5-10.83-5.13-16.41-7.13l-2.1-.71c-.7-.25-1.41-.45-2.12-.64a42.53,42.53,0,0,0-4.28-1.05l-2.16-.41c-.72-.1-1.45-.16-2.17-.25s-1.44-.19-2.17-.21l-2.17,0a59.37,59.37,0,0,0-17.05,2.7c-2.81.71-5.53,1.82-8.29,2.71-1.31.57-2.66,1-4,1.62s-2.63,1.14-3.91,1.85-2.58,1.32-3.85,2.06-2.55,1.45-3.81,2.23l-7.67,4.61c-1.3.77-2.59,1.55-3.92,2.29s-2.66,1.47-4,2.14-2.72,1.39-4.16,2l-2.13.89c-.72.27-1.46.51-2.18.77a41.63,41.63,0,0,1-18.09,2.27Z"/><path class="cls-1" d="M271.47,311.43c-8.13,5.6-17.16,9.74-26.56,10.57-4.68.46-9.39,2.71-14,1.87a79.35,79.35,0,0,1-13.64-4,263.87,263.87,0,0,1-26.37-12.54c-8.75-4.56-17.64-9.36-27.45-12.18a53.79,53.79,0,0,0-15.06-2.26,62.23,62.23,0,0,0-15,1.78A123.09,123.09,0,0,0,119,299.07c-4.71,1.72-9.34,3.66-13.85,5.74a246.83,246.83,0,0,1-24.41,9.82,44.27,44.27,0,0,0,5.17,3.4c3.52-1.18,5-.35,8.3-1.91,4.55-2.13,8.91-4.53,13.17-7s8.47-5,12.82-7.28a65.07,65.07,0,0,1,13.61-5.35,45.14,45.14,0,0,1,14.44-1.35,45.8,45.8,0,0,1,13.94,3.52c2.23.92,4.42,1.95,6.59,3.05s4.31,2.25,6.45,3.42c4.28,2.35,8.54,4.82,12.82,7.3,8.57,4.94,17.3,10,27,13.43a69.24,69.24,0,0,0,15,3.68,54.36,54.36,0,0,0,7.79.42c2.61-.07,5.21-2.88,7.76-3.36A45.52,45.52,0,0,0,260,321.2a52.75,52.75,0,0,0,6.29-4.26,61.66,61.66,0,0,0,5.57-5.05Z"/><path class="cls-1" d="M318.92,264a24.31,24.31,0,0,0-3.89.69,42.34,42.34,0,0,0-8.71,3.36,82.87,82.87,0,0,0-8,4.6c-2.56,1.65-5.05,3.36-7.51,5.09s-4.87,3.47-7.3,5.12a84.33,84.33,0,0,1-7.34,4.52,33.07,33.07,0,0,1-3.69,1.69l-4.09,1.37A88.71,88.71,0,0,1,251.6,294a76.37,76.37,0,0,1-17.25-.12,123.57,123.57,0,0,1-17.18-3.41c-5.69-1.52-11.39-3.24-17-5.16s-11.25-3.95-16.75-6.3-10.94-4.84-16.55-7.08a67,67,0,0,0-17.66-4.79,56,56,0,0,0-18.48,1.17,88.58,88.58,0,0,0-8.88,2.5c-1.46.57-2.93,1.11-4.35,1.75l-2.1,1c-.71.33-1.39.68-2.06,1.06-1.35.74-2.71,1.47-4,2.27s-2.61,1.58-3.88,2.4c-2.55,1.64-5,3.36-7.48,5s-4.92,3.31-7.42,4.83c-1.26.74-2.51,1.53-3.8,2.19l-1.92,1.05c-.65.33-1.31.62-2,.93A50,50,0,0,1,65.9,298v.6A41.63,41.63,0,0,0,84,296.29c.73-.26,1.46-.5,2.18-.77l2.13-.89c1.43-.57,2.78-1.3,4.16-2s2.69-1.43,4-2.14,2.62-1.52,3.92-2.29l7.67-4.61q1.89-1.16,3.81-2.23c1.27-.74,2.56-1.4,3.85-2.06s2.62-1.21,3.91-1.85,2.65-1.06,4-1.62c2.76-.9,5.49-2,8.29-2.71a59.37,59.37,0,0,1,17.05-2.7l2.17,0c.73,0,1.44.14,2.17.21s1.45.15,2.17.25l2.16.41a42.53,42.53,0,0,1,4.28,1.05c.71.18,1.42.39,2.12.64l2.1.71c5.58,2,11,4.61,16.41,7.13s10.89,5.09,16.39,7.5,11.07,4.78,16.84,6.71a105.91,105.91,0,0,0,17.82,4.42,76.73,76.73,0,0,0,36.81-3c1.47-.52,2.91-1,4.39-1.57a33.79,33.79,0,0,0,4.4-2.17,73.39,73.39,0,0,0,7.73-5.21c2.43-1.83,4.79-3.71,7.13-5.56s4.64-3.73,7-5.49c4.7-3.52,9.54-6.86,14.87-8.9.47-.18.95-.34,1.43-.49A4.75,4.75,0,0,1,318.92,264Z"/><path class="cls-4" d="M174.79,346.29c-94.66,0-171.67-77-171.67-171.67S80.13,3,174.79,3,346.46,80,346.46,174.62,269.45,346.29,174.79,346.29Zm0-327.34C89,19,19.12,88.79,19.12,174.62S89,330.29,174.79,330.29s155.67-69.83,155.67-155.67S260.62,19,174.79,19Z"/><path class="cls-1" d="M35.28,170c1.81-1.91,3.69-3.72,5.59-5.5s3.85-3.51,5.81-5.22,3.95-3.39,6-5,4.05-3.27,6.12-4.85l.42-.32.43.22c2.72,1.39,5.42,2.81,8.12,4.24s5.38,2.9,8,4.43c-2.85-1.12-5.66-2.33-8.47-3.53s-5.6-2.45-8.38-3.72l.85-.11c-1.93,1.75-3.89,3.47-5.88,5.15s-4,3.33-6,5-4.1,3.22-6.19,4.78S37.47,168.6,35.28,170Z"/><path class="cls-1" d="M116.28,154c3.48-2.92,7-5.74,10.55-8.62s7.09-5.68,10.66-8.48,7.14-5.6,10.73-8.38l10.79-8.3.55-.42.59.38c3.32,2.15,6.6,4.36,9.9,6.54l9.83,6.65q4.9,3.35,9.75,6.77c3.21,2.31,6.46,4.58,9.63,6.95-3.43-2-6.8-4.06-10.19-6.09s-6.73-4.16-10.08-6.27l-10-6.39c-3.31-2.17-6.64-4.3-9.93-6.5l1.14,0L149.33,130q-5.45,4.08-10.94,8.12t-11,8C123.69,148.77,120,151.45,116.28,154Z"/><path class="cls-1" d="M229.94,143.78c1.27-1.23,2.57-2.42,3.86-3.62s2.61-2.37,3.91-3.56l.21-.19.25.18c2.45,1.81,4.83,3.72,7.16,5.67q1.75,1.47,3.44,3t3.34,3.13q-1.92-1.26-3.75-2.63T244.73,143c-2.39-1.89-4.74-3.83-7-5.86h.45c-1.36,1.12-2.71,2.25-4.09,3.36S231.34,142.7,229.94,143.78Z"/><path class="cls-1" d="M271.36,147c2.25-2.13,4.56-4.19,6.89-6.21l.26-.23.37.17c6.31,2.91,12.49,6.06,18.6,9.36q4.58,2.46,9.08,5.08c3,1.76,6,3.54,8.88,5.47-3.23-1.3-6.39-2.75-9.54-4.23s-6.25-3-9.33-4.62c-6.17-3.17-12.27-6.49-18.24-10l.63-.06C276.47,143.56,273.94,145.34,271.36,147Z"/></svg>